<svg id="visual" viewBox="0 0 900 600" width="900" height="600" xmlns="http://www.w3.org/2000/svg" xmlns:xlink="http://www.w3.org/1999/xlink" version="1.1"><rect x="0" y="0" width="900" height="600" fill="#0e0606"></rect><path d="M0 220L225 245L450 239L675 232L900 253L900 601L675 601L450 601L225 601L0 601Z" fill="#240006"></path><path d="M0 187L225 229L450 233L675 298L900 174L900 601L675 601L450 601L225 601L0 601Z" fill="#300a12"></path><path d="M0 311L225 152L450 189L675 289L900 240L900 601L675 601L450 601L225 601L0 601Z" fill="#3f0f1a"></path><path d="M0 268L225 280L450 353L675 274L900 196L900 601L675 601L450 601L225 601L0 601Z" fill="#501422"></path><path d="M0 284L225 381L450 366L675 237L900 341L900 601L675 601L450 601L225 601L0 601Z" fill="#601929"></path><path d="M0 334L225 391L450 294L675 343L900 374L900 601L675 601L450 601L225 601L0 601Z" fill="#711f31"></path><path d="M0 368L225 386L450 403L675 334L900 403L900 601L675 601L450 601L225 601L0 601Z" fill="#832539"></path><path d="M0 449L225 430L450 467L675 442L900 368L900 601L675 601L450 601L225 601L0 601Z" fill="#952b41"></path><path d="M0 450L225 458L450 467L675 473L900 420L900 601L675 601L450 601L225 601L0 601Z" fill="#a73148"></path><path d="M0 512L225 523L450 494L675 498L900 475L900 601L675 601L450 601L225 601L0 601Z" fill="#ba3850"></path><path d="M0 519L225 541L450 548L675 544L900 486L900 601L675 601L450 601L225 601L0 601Z" fill="#cd3e57"></path><path d="M0 573L225 527L450 552L675 568L900 535L900 601L675 601L450 601L225 601L0 601Z" fill="#e0455f"></path></svg>