<svg id="visual" viewBox="0 0 900 600" width="900" height="600" xmlns="http://www.w3.org/2000/svg" xmlns:xlink="http://www.w3.org/1999/xlink" version="1.1"><rect x="0" y="0" width="900" height="600" fill="#001220"></rect><path d="M0 434L21.5 420.2C43 406.3 86 378.7 128.8 367.3C171.7 356 214.3 361 257.2 373.2C300 385.3 343 404.7 385.8 405.8C428.7 407 471.3 390 514.2 385C557 380 600 387 642.8 394.7C685.7 402.3 728.3 410.7 771.2 407.3C814 404 857 389 878.5 381.5L900 374L900 601L878.5 601C857 601 814 601 771.2 601C728.3 601 685.7 601 642.8 601C600 601 557 601 514.2 601C471.3 601 428.7 601 385.8 601C343 601 300 601 257.2 601C214.3 601 171.7 601 128.8 601C86 601 43 601 21.5 601L0 601Z" fill="#00b0b8"></path><path d="M0 416L21.5 418.8C43 421.7 86 427.3 128.8 426.5C171.7 425.7 214.3 418.3 257.2 412.5C300 406.7 343 402.3 385.8 405.5C428.7 408.7 471.3 419.3 514.2 426.7C557 434 600 438 642.8 433.7C685.7 429.3 728.3 416.7 771.2 418.3C814 420 857 436 878.5 444L900 452L900 601L878.5 601C857 601 814 601 771.2 601C728.3 601 685.7 601 642.8 601C600 601 557 601 514.2 601C471.3 601 428.7 601 385.8 601C343 601 300 601 257.2 601C214.3 601 171.7 601 128.8 601C86 601 43 601 21.5 601L0 601Z" fill="#0098a2"></path><path d="M0 428L21.5 438.2C43 448.3 86 468.7 128.8 475.7C171.7 482.7 214.3 476.3 257.2 465.5C300 454.7 343 439.3 385.8 440.5C428.7 441.7 471.3 459.3 514.2 468.3C557 477.3 600 477.7 642.8 475.3C685.7 473 728.3 468 771.2 465C814 462 857 461 878.5 460.5L900 460L900 601L878.5 601C857 601 814 601 771.2 601C728.3 601 685.7 601 642.8 601C600 601 557 601 514.2 601C471.3 601 428.7 601 385.8 601C343 601 300 601 257.2 601C214.3 601 171.7 601 128.8 601C86 601 43 601 21.5 601L0 601Z" fill="#00808c"></path><path d="M0 483L21.5 485.3C43 487.7 86 492.3 128.8 497.7C171.7 503 214.3 509 257.2 513.5C300 518 343 521 385.8 517.5C428.7 514 471.3 504 514.2 500.7C557 497.3 600 500.7 642.8 501.7C685.7 502.7 728.3 501.3 771.2 498C814 494.7 857 489.3 878.5 486.7L900 484L900 601L878.5 601C857 601 814 601 771.2 601C728.3 601 685.7 601 642.8 601C600 601 557 601 514.2 601C471.3 601 428.7 601 385.8 601C343 601 300 601 257.2 601C214.3 601 171.7 601 128.8 601C86 601 43 601 21.5 601L0 601Z" fill="#006a76"></path><path d="M0 501L21.5 506.8C43 512.7 86 524.3 128.8 524.5C171.7 524.7 214.3 513.3 257.2 509.8C300 506.3 343 510.7 385.8 517.5C428.7 524.3 471.3 533.7 514.2 537.7C557 541.7 600 540.3 642.8 533.3C685.7 526.3 728.3 513.7 771.2 512.3C814 511 857 521 878.5 526L900 531L900 601L878.5 601C857 601 814 601 771.2 601C728.3 601 685.7 601 642.8 601C600 601 557 601 514.2 601C471.3 601 428.7 601 385.8 601C343 601 300 601 257.2 601C214.3 601 171.7 601 128.8 601C86 601 43 601 21.5 601L0 601Z" fill="#005560"></path><path d="M0 563L21.5 560.5C43 558 86 553 128.8 552.7C171.7 552.3 214.3 556.7 257.2 561.2C300 565.7 343 570.3 385.8 571.5C428.7 572.7 471.3 570.3 514.2 563.8C557 557.3 600 546.7 642.8 544C685.7 541.3 728.3 546.7 771.2 547.7C814 548.7 857 545.3 878.5 543.7L900 542L900 601L878.5 601C857 601 814 601 771.2 601C728.3 601 685.7 601 642.8 601C600 601 557 601 514.2 601C471.3 601 428.7 601 385.8 601C343 601 300 601 257.2 601C214.3 601 171.7 601 128.8 601C86 601 43 601 21.5 601L0 601Z" fill="#00404a"></path></svg>