<svg id="visual" viewBox="0 0 900 600" width="900" height="600" xmlns="http://www.w3.org/2000/svg" xmlns:xlink="http://www.w3.org/1999/xlink" version="1.1"><rect x="0" y="0" width="900" height="600" fill="#001220"></rect><path d="M0 372L300 300L600 391L900 333L900 601L600 601L300 601L0 601Z" fill="#00404a"></path><path d="M0 411L300 432L600 344L900 356L900 601L600 601L300 601L0 601Z" fill="#005560"></path><path d="M0 466L300 406L600 454L900 448L900 601L600 601L300 601L0 601Z" fill="#006a76"></path><path d="M0 470L300 484L600 447L900 495L900 601L600 601L300 601L0 601Z" fill="#00808c"></path><path d="M0 510L300 487L600 486L900 489L900 601L600 601L300 601L0 601Z" fill="#0098a2"></path><path d="M0 563L300 570L600 550L900 559L900 601L600 601L300 601L0 601Z" fill="#00b0b8"></path></svg>